<?xml version="1.0" standalone="no"?><!DOCTYPE svg PUBLIC "-//W3C//DTD SVG 1.1//EN" "http://www.w3.org/Graphics/SVG/1.1/DTD/svg11.dtd"><svg t="1591629903157" class="icon" viewBox="0 0 1024 1024" version="1.1" xmlns="http://www.w3.org/2000/svg" p-id="12764" width="64" height="64" xmlns:xlink="http://www.w3.org/1999/xlink"><defs><style type="text/css"></style></defs><path d="M924.262 142.182H668.836c-48.41 0-93.901 17.885-128.195 50.478-11.673 11.07-20.797 23.84-28.702 37.095-7.91-13.256-17.03-25.907-28.826-37.095-34.304-32.593-79.79-50.472-128.2-50.472H99.738c-13.497 0-24.443 10.332-24.443 23.229v641.956c0 12.892 10.946 23.23 24.448 23.23h229.755c9.61 0 19.343 0.731 29.071 2.549 9.85 1.833 19.215 4.383 28.093 7.793l116.404 43.054c0.24 0.117 0.486 0 0.727 0.117 2.677 0.856 5.355 1.46 8.15 1.46 2.801 0 5.469-0.482 8.152-1.46 0.117-0.117 0.486-0.117 0.609-0.117l111.775-41.355a203.546 203.546 0 0 1 32.962-9 197.734 197.734 0 0 1 34.048-3.042h224.773c13.507 0 24.454-10.46 24.454-23.23V165.295c0-12.774-10.947-23.106-24.454-23.106zM367.437 787.436a220.98 220.98 0 0 0-37.95-3.288H124.063v-595.63h230.973c35.39 0 68.72 13.138 93.773 37.1 25.057 23.839 38.922 55.46 38.922 89.277v513.398l-83.318-30.776a232.156 232.156 0 0 0-36.971-10.092z m532.495-3.288h-200.33c-14.592 0-29.19 1.214-43.049 3.774-14.11 2.673-28.221 6.44-41.6 11.433l-78.572 28.948V314.778c0-33.69 13.743-65.434 38.8-89.278 25.052-23.839 58.383-37.094 93.773-37.094H900.05v595.737h-0.118z" p-id="12765"></path></svg>